<svg width="30" height="28" viewBox="0 0 30 28" fill="none" xmlns="http://www.w3.org/2000/svg">
<path fill-rule="evenodd" clip-rule="evenodd" d="M15.0004 0C23.2846 0 30.0004 6.26846 30.0004 14.0004C30.0004 21.7323 23.2846 28.0004 15.0004 28.0004C6.71578 28.0004 0 21.7323 0 14.0004C0 6.26846 6.71578 0 15.0004 0ZM20.9727 23.7219C21.2691 22.868 21.7529 21.2185 21.9948 20.3938C22.2988 19.3574 22.4643 19.6088 21.3793 19.2463C20.5839 18.9803 19.0247 18.4771 18.245 18.2257C17.4656 17.9739 17.4656 17.9739 16.9163 18.2624C16.3671 18.5508 15.2681 19.1281 14.7188 19.4165C14.1696 19.705 14.1696 19.705 13.9259 19.4812C12.0696 17.7757 10.0925 14.5489 9.45411 12.252C9.3684 11.9431 9.3684 11.9431 9.9105 11.6436C10.453 11.3437 11.5376 10.744 12.0801 10.4445C12.6222 10.1447 12.6222 10.1447 12.7789 9.3885C12.9351 8.63272 13.2479 7.12078 13.3986 6.3449C13.6047 5.2865 13.7554 5.54617 12.6416 5.27389C11.7555 5.05677 9.98311 4.62293 9.04247 4.43576C8.08283 4.24465 7.90762 4.13313 7.63193 4.99215C7.07802 6.71688 6.83019 8.54446 7.05607 10.3362C7.58212 14.4993 10.8478 19.8311 14.5043 22.377C15.9943 23.4141 17.9368 24.1833 19.7509 24.584C20.6861 24.7905 20.67 24.5935 20.9727 23.7219Z" fill="black" fill-opacity="0.79"/>
</svg>
