<svg width="67" height="59" viewBox="0 0 67 59" fill="none" xmlns="http://www.w3.org/2000/svg">
<path d="M48.2358 34.3506H52.1566V37.67C52.1566 37.912 52.2702 38.1441 52.4724 38.3152C52.6746 38.4864 52.9488 38.5825 53.2348 38.5825C53.5207 38.5825 53.7949 38.4864 53.9971 38.3152C54.1993 38.1441 54.3129 37.912 54.3129 37.67V34.3506H58.2337C58.5196 34.3506 58.7939 34.2545 58.996 34.0833C59.1982 33.9122 59.3118 33.6801 59.3118 33.4381C59.3118 33.1961 59.1982 32.964 58.996 32.7929C58.7939 32.6217 58.5196 32.5256 58.2337 32.5256H54.3129V29.2071C54.3129 28.9651 54.1993 28.733 53.9971 28.5619C53.7949 28.3908 53.5207 28.2946 53.2348 28.2946C52.9488 28.2946 52.6746 28.3908 52.4724 28.5619C52.2702 28.733 52.1566 28.9651 52.1566 29.2071V32.5256H48.2358C47.9499 32.5256 47.6756 32.6217 47.4735 32.7929C47.2713 32.964 47.1577 33.1961 47.1577 33.4381C47.1577 33.6801 47.2713 33.9122 47.4735 34.0833C47.6756 34.2545 47.9499 34.3506 48.2358 34.3506Z" fill="black"/>
<path d="M10.8404 53.3857L6.0867 54.095C5.24541 54.2139 4.38266 54.0469 3.68619 53.6301C2.98972 53.2134 2.51588 52.5807 2.36778 51.8697C2.21968 51.1588 2.4093 50.4271 2.89539 49.8339C3.38147 49.2406 4.12467 48.8339 4.96329 48.7021L16.6415 46.96C17.1336 46.8849 17.6396 46.908 18.1192 47.0276C18.5989 47.1472 19.0389 47.3599 19.4042 47.6488C19.6146 47.8101 19.8916 47.8946 20.1751 47.8841C20.4586 47.8736 20.7258 47.7689 20.9187 47.5927C21.1116 47.4166 21.2147 47.1831 21.2055 46.9431C21.1964 46.703 21.0758 46.4757 20.8698 46.3104C20.2618 45.8284 19.5289 45.4735 18.7297 45.2742C17.9306 45.0749 17.0875 45.0367 16.2678 45.1626L4.58843 46.9055C3.26196 47.1043 2.07144 47.7161 1.25121 48.6205C0.430985 49.525 0.04047 50.6565 0.156536 51.7924C0.272603 52.9284 0.886842 53.9864 1.87835 54.7582C2.86985 55.53 4.1668 55.9598 5.51389 55.9628C5.8316 55.9624 6.14865 55.9386 6.46146 55.8916L11.2151 55.1823C11.4899 55.1342 11.7317 54.9975 11.8892 54.801C12.0467 54.6045 12.1076 54.3638 12.0588 54.1299C12.01 53.8961 11.8554 53.6876 11.6279 53.5486C11.4004 53.4097 11.1178 53.3513 10.8403 53.3858L10.8404 53.3857Z" fill="black"/>
<path d="M59.8825 12.9849V10.2242H62.6609C62.9469 10.2242 63.2211 10.1281 63.4233 9.95693C63.6255 9.78581 63.7391 9.55371 63.7391 9.3117V2.7375C63.7381 2.01171 63.3971 1.31588 62.7907 0.802676C62.1843 0.289467 61.3622 0.00079705 60.5047 0H32.8094C31.9519 0.00079705 31.1297 0.289467 30.5234 0.802676C29.917 1.31588 29.5759 2.01171 29.575 2.7375V9.3117C29.575 9.55371 29.6886 9.78581 29.8908 9.95693C30.093 10.1281 30.3672 10.2242 30.6531 10.2242H33.5755V12.9591C31.6038 13.1825 29.7948 14.0035 28.4839 15.2698C27.173 16.5362 26.4491 18.1619 26.4466 19.8456V49.275H19.1453C17.7156 49.275 16.3445 49.7557 15.3336 50.6113C14.3226 51.467 13.7547 52.6275 13.7547 53.8375C13.7547 55.0476 14.3226 56.208 15.3336 57.0637C16.3445 57.9193 17.7156 58.4 19.1453 58.4H31.0047C32.2467 58.3985 33.4502 58.0347 34.4123 57.3699C35.3744 56.705 36.0363 55.7797 36.2863 54.75H64.5372C65.1546 54.7495 65.7466 54.5416 66.1832 54.1721C66.6198 53.8026 66.8653 53.3016 66.8659 52.779V19.8455C66.8625 18.1844 66.1563 16.5792 64.8753 15.3207C63.5942 14.0622 61.823 13.2335 59.8825 12.9849ZM31.7313 8.3992V2.7375C31.7315 2.49556 31.8452 2.26361 32.0473 2.09253C32.2495 1.92146 32.5235 1.82524 32.8094 1.825H60.5048C60.7906 1.82524 61.0647 1.92146 61.2668 2.09253C61.469 2.26361 61.5826 2.49556 61.5829 2.7375V8.3992H58.4047V7.38468C58.4047 7.14267 58.2911 6.91057 58.0889 6.73945C57.8867 6.56832 57.6125 6.47218 57.3266 6.47218C57.0406 6.47218 56.7664 6.56832 56.5642 6.73945C56.362 6.91057 56.2485 7.14267 56.2485 7.38468V8.3992H53.0695V7.38468C53.0695 7.14267 52.9559 6.91057 52.7537 6.73945C52.5515 6.56832 52.2773 6.47218 51.9914 6.47218C51.7054 6.47218 51.4312 6.56832 51.229 6.73945C51.0268 6.91057 50.9133 7.14267 50.9133 7.38468V8.3992H47.7346V7.38468C47.7346 7.14267 47.621 6.91057 47.4188 6.73945C47.2167 6.56832 46.9424 6.47218 46.6565 6.47218C46.3706 6.47218 46.0963 6.56832 45.8941 6.73945C45.692 6.91057 45.5784 7.14267 45.5784 7.38468V8.3992H42.3998V7.38468C42.3998 7.14267 42.2862 6.91057 42.0841 6.73945C41.8819 6.56832 41.6076 6.47218 41.3217 6.47218C41.0358 6.47218 40.7616 6.56832 40.5594 6.73945C40.3572 6.91057 40.2436 7.14267 40.2436 7.38468V8.3992H37.066V7.38468C37.066 7.14267 36.9524 6.91057 36.7503 6.73945C36.5481 6.56832 36.2738 6.47218 35.9879 6.47218C35.702 6.47218 35.4277 6.56832 35.2256 6.73945C35.0234 6.91057 34.9098 7.14267 34.9098 7.38468V8.3992H31.7313ZM31.0047 56.575H19.1453C18.2875 56.575 17.4648 56.2866 16.8583 55.7732C16.2517 55.2598 15.9109 54.5635 15.9109 53.8375C15.9109 53.1115 16.2517 52.4152 16.8583 51.9018C17.4648 51.3884 18.2875 51.1 19.1453 51.1H31.0047C31.8625 51.1 32.6852 51.3884 33.2917 51.9018C33.8983 52.4152 34.2391 53.1115 34.2391 53.8375C34.2391 54.5635 33.8983 55.2598 33.2917 55.7732C32.6852 56.2866 31.8625 56.575 31.0047 56.575ZM64.5371 52.925H36.2864C36.0364 51.8953 35.3745 50.97 34.4124 50.3051C33.4503 49.6403 32.2469 49.2765 31.0048 49.275H28.6032V19.8455C28.6049 18.4878 29.243 17.1861 30.3772 16.226C31.5115 15.2659 33.0495 14.7259 34.6536 14.7243H35.7317V10.2242H57.7255V12.8993H46.6565C46.3706 12.8993 46.0963 12.9954 45.8941 13.1665C45.692 13.3377 45.5784 13.5698 45.5784 13.8118C45.5784 14.0538 45.692 14.2859 45.8941 14.457C46.0963 14.6281 46.3706 14.7243 46.6565 14.7243H58.659C60.2633 14.7258 61.8013 15.2658 62.9356 16.2259C64.07 17.186 64.708 18.4877 64.7098 19.8455V21.9009H40.6803C40.3944 21.9009 40.1202 21.9971 39.918 22.1682C39.7158 22.3393 39.6022 22.5714 39.6022 22.8134V44.0638C39.6021 44.1837 39.63 44.3023 39.6841 44.4131C39.7383 44.5238 39.8177 44.6245 39.9178 44.7092C40.0179 44.7939 40.1368 44.8612 40.2677 44.907C40.3985 44.9528 40.5387 44.9764 40.6803 44.9763H64.7098V52.779C64.7095 52.8177 64.6913 52.8547 64.659 52.882C64.6266 52.9094 64.5829 52.9248 64.5372 52.925H64.5371ZM64.7096 43.1513H41.7585V23.7259H64.7098L64.7096 43.1513Z" fill="black"/>
</svg>
