<svg width="59" height="58" viewBox="0 0 59 58" fill="none" xmlns="http://www.w3.org/2000/svg">
<path d="M58.4832 28.8139C58.5003 22.251 56.2315 15.88 52.054 10.76C47.8765 5.64 42.0419 2.07949 35.5202 0.670338C28.9985 -0.738814 22.1825 0.088281 16.2054 3.01413C10.2282 5.93997 5.44996 10.7883 2.6649 16.7532C-0.120165 22.718 -0.744249 29.4401 0.896396 35.8019C2.53704 42.1637 6.34358 47.7819 11.6832 51.7227C17.0229 55.6635 23.5739 57.6894 30.2474 57.4637C36.9209 57.238 43.3148 54.7742 48.3661 50.4819L48.3787 50.4698L48.383 50.4664L48.3871 50.4621C51.5577 47.7819 54.1014 44.4597 55.844 40.7232C57.5866 36.9867 58.4869 32.9242 58.4832 28.8139ZM5.98318 28.8139C5.97334 25.1537 6.85502 21.5443 8.55453 18.2875C10.254 15.0306 12.722 12.2209 15.7522 10.0931C18.7824 7.96534 22.2867 6.58133 25.9723 6.05675C29.6579 5.53217 33.4178 5.88226 36.9376 7.07777C40.4574 8.27327 43.635 10.2795 46.2047 12.9287C48.7744 15.5779 50.6616 18.7931 51.7086 22.3057C52.7556 25.8183 52.932 29.5262 52.223 33.1195C51.514 36.7127 49.9402 40.087 47.6332 42.9603C46.449 40.5404 44.7779 38.3815 42.721 36.6141C40.664 34.8468 38.2639 33.5076 35.6655 32.6776C37.7817 31.3309 39.3975 29.347 40.2709 27.0226C41.1444 24.6983 41.2287 22.1584 40.5111 19.783C39.7936 17.4077 38.3128 15.3245 36.2903 13.8452C34.2678 12.3659 31.8123 11.57 29.2913 11.5766C26.7702 11.5832 24.3191 12.3919 22.3046 13.8817C20.2901 15.3715 18.8206 17.4624 18.1159 19.8415C17.4112 22.2205 17.5092 24.7599 18.3952 27.0797C19.2812 29.3995 20.9076 31.375 23.0311 32.7106C20.4331 33.5466 18.0307 34.883 15.964 36.6418C13.8974 38.4006 12.208 40.5464 10.9946 42.954C7.75144 38.9299 5.98561 33.9475 5.98318 28.8139Z" fill="black"/>
</svg>
