<svg width="66" height="58" viewBox="0 0 66 58" fill="none" xmlns="http://www.w3.org/2000/svg">
<path fill-rule="evenodd" clip-rule="evenodd" d="M20.0008 0L25.9065 9.78865L40.0016 11.0284L29.5615 18.3126L32.3635 28.8681L20.0008 23.5854L7.6381 28.8681L10.44 18.3126L0 11.0284L14.095 9.78865L20.0008 0ZM14.5544 15.6788L17.6319 17.4463L23.9576 11.1977L26.1231 12.4574L18.9771 19.5225L18.1503 20.3341L17.0676 19.7167L12.9073 17.3318L14.5544 15.6788ZM43.4532 13.02H66V15.7385H43.4532V13.02ZM43.4532 19.0197H54.7266V21.7382H43.4532V19.0197ZM20.0008 29.1319L25.9065 38.9206L40.0016 40.1604L29.5615 47.4496L32.3635 58L20.0008 52.7173L7.6381 58L10.44 47.4496L0 40.1604L14.095 38.9206L20.0008 29.1319ZM14.5544 44.8157L17.6319 46.5782L23.9576 40.3296L26.1231 41.5943L18.9771 48.6545L18.1503 49.466L17.0676 48.8487L12.9073 46.4637L14.5544 44.8157ZM43.4532 42.1519H66V44.8705H43.4532V42.1519ZM43.4532 48.1566H54.7266V50.8751H43.4532V48.1566Z" fill="black"/>
</svg>
