<svg xmlns="http://www.w3.org/2000/svg" xmlns:xlink="http://www.w3.org/1999/xlink" xml:space="preserve" version="1.1" style="shape-rendering:geometricPrecision;text-rendering:geometricPrecision;image-rendering:optimizeQuality;" viewBox="0 0 10058 14561.25" x="0px" y="0px" fill-rule="evenodd" clip-rule="evenodd"><defs><style type="text/css">
   
    .fil0 {fill:black}
   
  </style></defs><g><path class="fil0" d="M3048 0l900 1966 2148 249 -1591 1463 427 2120 -1884 -1061 -1884 1061 427 -2120 -1591 -1463 2148 -249 900 -1966zm-830 3149l469 355 964 -1255 330 253 -1089 1419 -126 163 -165 -124 -634 -479 251 -332zm4404 -534l3436 0 0 546 -3436 0 0 -546zm0 1205l1718 0 0 546 -1718 0 0 -546zm-3574 2031l900 1966 2148 249 -1591 1464 427 2119 -1884 -1061 -1884 1061 427 -2119 -1591 -1464 2148 -249 900 -1966zm-830 3150l469 354 964 -1255 330 254 -1089 1418 -126 163 -165 -124 -634 -479 251 -331zm4404 -535l3436 0 0 546 -3436 0 0 -546zm0 1206l1718 0 0 546 -1718 0 0 -546z"/></g><text x="0" y="11664" fill="#000000" font-size="5px" font-weight="bold" font-family="'Helvetica Neue', Helvetica, Arial-Unicode, Arial, Sans-serif">Created by popcornarts</text><text x="0" y="11669" fill="#000000" font-size="5px" font-weight="bold" font-family="'Helvetica Neue', Helvetica, Arial-Unicode, Arial, Sans-serif">from the Noun Project</text></svg>