<svg width="32" height="30" viewBox="0 0 32 30" fill="none" xmlns="http://www.w3.org/2000/svg">
<path d="M16 0.580017C12.9739 0.580017 10.0158 1.43746 7.49973 3.04393C4.98366 4.6504 3.02262 6.93373 1.8646 9.60518C0.70658 12.2766 0.403589 15.2162 0.993943 18.0522C1.5843 20.8882 3.04148 23.4933 5.18122 25.5379C7.32097 27.5826 10.0472 28.975 13.0151 29.5391C15.983 30.1032 19.0593 29.8137 21.855 28.7071C24.6507 27.6006 27.0403 25.7267 28.7214 23.3225C30.4026 20.9182 31.3 18.0916 31.3 15.2C31.3 11.3226 29.688 7.6039 26.8187 4.86212C23.9494 2.12033 20.0578 0.580017 16 0.580017ZM22.5592 15.7848C22.3791 16.0911 22.1758 16.3842 21.9508 16.662L16 25.2723L10.0564 16.6723C9.83137 16.3946 9.62803 16.1014 9.44796 15.7951C8.81314 14.7039 8.48758 13.4731 8.50352 12.2247C8.51945 10.9762 8.87632 9.75339 9.5388 8.67724C10.2013 7.60109 11.1464 6.70892 12.2806 6.08905C13.4148 5.46919 14.6988 5.14311 16.0054 5.14311C17.312 5.14311 18.5959 5.46919 19.7301 6.08905C20.8643 6.70892 21.8094 7.60109 22.4719 8.67724C23.1344 9.75339 23.4913 10.9762 23.5072 12.2247C23.5231 13.4731 23.1976 14.7039 22.5628 15.7951L22.5592 15.7848Z" fill="black" fill-opacity="0.79"/>
<path d="M16 16.1047C18.199 16.1047 19.9816 14.4013 19.9816 12.3001C19.9816 10.1988 18.199 8.49542 16 8.49542C13.8011 8.49542 12.0184 10.1988 12.0184 12.3001C12.0184 14.4013 13.8011 16.1047 16 16.1047Z" fill="black" fill-opacity="0.79"/>
</svg>
