<svg xmlns="http://www.w3.org/2000/svg" data-name="Layer 1" viewBox="0 0 64 80" x="0px" y="0px"><title>Medicine</title><path d="M45.668,37.6445h3.6367v3.6377a1,1,0,0,0,2,0V37.6445h3.6367a1,1,0,0,0,0-2H51.3047V32.0078a1,1,0,0,0-2,0v3.6367H45.668a1,1,0,0,0,0,2Z"/><path d="M10.9824,58.5049l-4.4092.7773a3.0007,3.0007,0,0,1-1.042-5.91l10.832-1.9092a2.9787,2.9787,0,0,1,2.5625.7549,1,1,0,0,0,1.3594-1.4668,4.9508,4.9508,0,0,0-4.2686-1.2578l-10.833,1.91a5.0012,5.0012,0,0,0,.8584,9.9258,5.0689,5.0689,0,0,0,.8789-.0781l4.4092-.7773a1,1,0,0,0-.3477-1.9687Z"/><path d="M56.4707,14.23V11.2046h2.5771a1,1,0,0,0,1-1V3a3.0033,3.0033,0,0,0-3-3H31.3594a3.0033,3.0033,0,0,0-3,3v7.2046a1,1,0,0,0,1,1H32.07v2.9971a7.624,7.624,0,0,0-6.6123,7.5469V54H18.6855a5,5,0,0,0,0,10h11a5.0084,5.0084,0,0,0,4.8989-4H60.7881a2.1622,2.1622,0,0,0,2.16-2.16V21.7485A7.6177,7.6177,0,0,0,56.4707,14.23ZM30.3594,9.2046V3a1.001,1.001,0,0,1,1-1H57.0479a1.001,1.001,0,0,1,1,1V9.2046H55.1V8.0928a1,1,0,0,0-2,0V9.2046H50.1514V8.0928a1,1,0,0,0-2,0V9.2046H45.2031V8.0928a1,1,0,0,0-2,0V9.2046H40.2549V8.0928a1,1,0,0,0-2,0V9.2046H35.3076V8.0928a1,1,0,0,0-2,0V9.2046H30.3594ZM29.6855,62h-11a3,3,0,0,1,0-6h11a3,3,0,0,1,0,6Zm31.1025-4H34.5845a5.0084,5.0084,0,0,0-4.8989-4H27.458V21.7485A5.6185,5.6185,0,0,1,33.07,16.1362h1V11.2046h20.4v2.9316H44.2031a1,1,0,1,0,0,2H55.3359a5.6185,5.6185,0,0,1,5.6123,5.6123V24.001H38.66a1,1,0,0,0-1,1V48.2891a.9994.9994,0,0,0,1,1H60.9482V57.84A.1609.1609,0,0,1,60.7881,58Zm.16-10.7109H39.66V26.001H60.9482Z"/><text x="0" y="79" fill="#000000" font-size="5px" font-weight="bold" font-family="'Helvetica Neue', Helvetica, Arial-Unicode, Arial, Sans-serif">Created by Mooms</text><text x="0" y="84" fill="#000000" font-size="5px" font-weight="bold" font-family="'Helvetica Neue', Helvetica, Arial-Unicode, Arial, Sans-serif">from the Noun Project</text></svg>